<svg xmlns="http://www.w3.org/2000/svg" xmlns:xlink="http://www.w3.org/1999/xlink" width="14" height="17" viewBox="0 0 14 17"><defs><path id="7efba" d="M1198.48 46.15l-2.9-1.35a.74.74 0 0 1-.45-.67v-.96l.22-.27c.38-.5.68-1.05.9-1.64.43-.19.7-.58.7-1.03V39.1c0-.27-.1-.54-.3-.74v-1.51c.02-.16.09-1.08-.63-1.85-.63-.66-1.64-1-3.02-1-1.38 0-2.4.34-3.02 1-.72.76-.65 1.7-.63 1.85v1.5c-.2.21-.3.48-.3.75v1.13c0 .35.16.67.45.88a5.8 5.8 0 0 0 1.07 2.05v.94c0 .28-.17.53-.42.66l-2.72 1.38a2.53 2.53 0 0 0-1.43 2.24v.92c0 1.34 4.58 1.7 7 1.7s7-.36 7-1.7v-.86c0-.98-.58-1.85-1.52-2.29z"/><clipPath id="7efbb"><use fill="#fff" xlink:href="#7efba"/></clipPath></defs><use fill="#fff" fill-opacity="0" stroke="#000" stroke-miterlimit="50" stroke-width="2" clip-path="url(&quot;#7efbb&quot;)" xlink:href="#7efba" transform="translate(-1186 -34)"/></svg>