<svg xmlns="http://www.w3.org/2000/svg" xmlns:xlink="http://www.w3.org/1999/xlink" width="20" height="20" viewBox="0 0 20 20"><defs><clipPath id="r6tai"><use fill="#fff" xlink:href="#r6tab"/></clipPath><clipPath id="r6tag"><use fill="#fff" xlink:href="#r6taa"/></clipPath><clipPath id="r6tam"><use fill="#fff" xlink:href="#r6taf"/></clipPath><clipPath id="r6tal"><use fill="#fff" xlink:href="#r6tae"/></clipPath><clipPath id="r6tak"><use fill="#fff" xlink:href="#r6tad"/></clipPath><clipPath id="r6taj"><use fill="#fff" xlink:href="#r6tac"/></clipPath><clipPath id="r6tah"><use xlink:href="#r6taa"/></clipPath><path id="r6tab" d="M925 862l12-8v2l-12 8z"/><path id="r6taf" d="M925 874l12-8v2l-12 8"/><path id="r6tae" d="M925 870l12-8v2l-12 8"/><path id="r6tad" d="M925 866l12-8v2l-12 8z"/><path id="r6tac" d="M925 858l12-8v2l-12 8z"/><path id="r6taa" d="M937 850a10 10 0 1 1 0 20 10 10 0 0 1 0-20z"/></defs><g transform="translate(-927 -850)"><use fill="#7765a1" xlink:href="#r6taa"/><use fill="#fff" fill-opacity="0" stroke="#f1f1f3" stroke-miterlimit="50" stroke-width="2" clip-path="url(&quot;#r6tag&quot;)" xlink:href="#r6taa"/></g><g clip-path="url(#r6tah)" transform="translate(-927 -850)"><use fill="#7765a1" xlink:href="#r6tab"/><use fill="#fff" fill-opacity="0" stroke="#f1f1f3" stroke-miterlimit="50" stroke-width="2" clip-path="url(&quot;#r6tai&quot;)" xlink:href="#r6tab"/></g><g clip-path="url(#r6tah)" transform="translate(-927 -850)"><use fill="#7765a1" xlink:href="#r6tac"/><use fill="#fff" fill-opacity="0" stroke="#f1f1f3" stroke-miterlimit="50" stroke-width="2" clip-path="url(&quot;#r6taj&quot;)" xlink:href="#r6tac"/></g><g clip-path="url(#r6tah)" transform="translate(-927 -850)"><use fill="#7765a1" xlink:href="#r6tad"/><use fill="#fff" fill-opacity="0" stroke="#f1f1f3" stroke-miterlimit="50" stroke-width="2" clip-path="url(&quot;#r6tak&quot;)" xlink:href="#r6tad"/></g><g clip-path="url(#r6tah)" transform="translate(-927 -850)"><use fill="#7765a1" xlink:href="#r6tae"/><use fill="#fff" fill-opacity="0" stroke="#f1f1f3" stroke-miterlimit="50" stroke-width="2" clip-path="url(&quot;#r6tal&quot;)" xlink:href="#r6tae"/></g><g clip-path="url(#r6tah)" transform="translate(-927 -850)"><use fill="#7765a1" xlink:href="#r6taf"/><use fill="#fff" fill-opacity="0" stroke="#f1f1f3" stroke-miterlimit="50" stroke-width="2" clip-path="url(&quot;#r6tam&quot;)" xlink:href="#r6taf"/></g></svg>