<svg xmlns="http://www.w3.org/2000/svg" xmlns:xlink="http://www.w3.org/1999/xlink" width="10" height="9" viewBox="0 0 10 9"><defs><path id="8b3sa" d="M326.37 1795.08a.67.67 0 0 0-.37-1.15l-2.25-.33a.3.3 0 0 1-.22-.17l-1.01-2.06a.66.66 0 0 0-1.2 0l-1 2.06a.3.3 0 0 1-.23.17l-2.25.33a.67.67 0 0 0-.37 1.15l1.63 1.6c.07.07.1.17.08.26l-.38 2.27c-.04.2.02.4.14.54.2.24.55.32.83.17l2.01-1.07a.3.3 0 0 1 .28 0l2.01 1.07a.66.66 0 0 0 .83-.17.66.66 0 0 0 .14-.54l-.38-2.27a.3.3 0 0 1 .08-.26z"/></defs><use fill="transparent" stroke="#7765A1" xlink:href="#8b3sa" transform="translate(-317 -1791)"/></svg>