<svg xmlns="http://www.w3.org/2000/svg" xmlns:xlink="http://www.w3.org/1999/xlink" height="647" viewBox="0 0 40 647" width="40"><svg height="34" viewBox="0 0 9 34" width="9" x="4" y="4"><defs><path id="eoqza" d="M105.84 932.43c.18-.2.18-.51 0-.71a.43.43 0 0 0-.64 0l-3.27 3.58v-31.8c0-.28-.2-.5-.46-.5-.25 0-.46.22-.46.5v31.8l-3.26-3.58a.44.44 0 0 0-.65 0 .53.53 0 0 0 0 .7l4.05 4.43c.18.2.47.2.64 0z"/></defs><use xlink:href="#eoqza" transform="translate(-97 -903)"/></svg><svg height="34" viewBox="0 0 9 34" width="9" x="4" y="42"><defs><path id="7wtxa" d="M105.84 187.6c.18.2.18.5 0 .7a.43.43 0 0 1-.64 0l-3.27-3.57v31.78c0 .27-.2.5-.46.5-.25 0-.46-.23-.46-.5v-31.78l-3.26 3.58a.44.44 0 0 1-.65 0 .53.53 0 0 1 0-.7l4.05-4.43c.18-.2.47-.2.64 0z"/></defs><use xlink:href="#7wtxa" transform="translate(-97 -183)"/></svg><svg height="31.494" viewBox="0 0 32 32" width="31.494" x="4" y="80"><path d="M10.273,5.009c0.444-0.444,1.143-0.444,1.587,0c0.429,0.429,0.429,1.143,0,1.571l-8.047,8.047h26.554	c0.619,0,1.127,0.492,1.127,1.111c0,0.619-0.508,1.127-1.127,1.127H3.813l8.047,8.032c0.429,0.444,0.429,1.159,0,1.587	c-0.444,0.444-1.143,0.444-1.587,0l-9.952-9.952c-0.429-0.429-0.429-1.143,0-1.571L10.273,5.009z" fill="#1e201d"/></svg><svg height="26" viewBox="0 0 18 26" width="18" x="4" y="116"><defs><path id="1ttta" d="M876 598v-24h23v24zm20-3v-17h-16v17z"/><path id="1tttb" d="M879 583.5v-16h17v16zm14-1.5v-5.65c0-2.95-2.24-5.35-5-5.35s-5 2.4-5 5.35V582"/><path id="1tttc" d="M880 595v-17h16v17z"/><path id="1ttte" d="M883 582v-5.65c0-2.95 2.24-5.35 5-5.35s5 2.4 5 5.35V582"/><clipPath id="1tttd"><use fill="#fff" xlink:href="#1ttta"/></clipPath><clipPath id="1tttf"><use fill="#fff" xlink:href="#1tttb"/></clipPath></defs><use fill="#fff" fill-opacity="0" stroke="#fff" stroke-miterlimit="50" stroke-width="2" clip-path="url(&quot;#1tttd&quot;)" xlink:href="#1tttc" transform="translate(-879 -570)"/><use fill="#fff" fill-opacity="0" stroke="#fff" stroke-miterlimit="50" stroke-width="2" clip-path="url(&quot;#1tttf&quot;)" xlink:href="#1ttte" transform="translate(-879 -570)"/></svg><svg height="24" viewBox="0 0 25 24" width="25" x="4" y="146"><defs><path id="zuy3a" d="M1257.5 568l-1.75-1.83c-6.5-6-10.75-10.04-10.75-15 0-4.04 3-7.17 6.87-7.17a7.39 7.39 0 0 1 5.63 2.74 7.39 7.39 0 0 1 5.62-2.74c3.88 0 6.88 3.13 6.88 7.17 0 4.96-4.25 9-10.75 15z"/><clipPath id="zuy3b"><use fill="#fff" xlink:href="#zuy3a"/></clipPath></defs><use fill="#7765A1" stroke="#7765A1" stroke-miterlimit="50" stroke-width="2" clip-path="url(&quot;#zuy3b&quot;)" xlink:href="#zuy3a" transform="translate(-1245 -544)"/></svg><svg height="24" viewBox="0 0 25 24" width="25" x="4" y="174"><defs><path id="zuy3a" d="M1257.5 568l-1.75-1.83c-6.5-6-10.75-10.04-10.75-15 0-4.04 3-7.17 6.87-7.17a7.39 7.39 0 0 1 5.63 2.74 7.39 7.39 0 0 1 5.62-2.74c3.88 0 6.88 3.13 6.88 7.17 0 4.96-4.25 9-10.75 15z"/><clipPath id="zuy3b"><use fill="#fff" xlink:href="#zuy3a"/></clipPath></defs><use fill="#fff" fill-opacity="0" stroke="#000" stroke-miterlimit="50" stroke-width="2" clip-path="url(&quot;#zuy3b&quot;)" xlink:href="#zuy3a" transform="translate(-1245 -544)"/></svg><svg height="20.82" viewBox="0 0 21 21" width="20.78" x="4" y="202"><path id="_-e-Shape_16_copy_3" data-name="-e-Shape 16 copy 3" d="M1494.81,1562.54l13.43-13.44,6.37,6.36-13.44,13.44Zm3.53-2.13,1.42,1.42m0.7-3.54,2.13,2.12m0-4.24,1.41,1.42m0.71-3.54,2.12,2.12m0-4.24,1.41,1.41" transform="translate(-1494.31 -1548.59)" fill="none" stroke="#000" fill-rule="evenodd"/></svg><svg height="20.8" viewBox="0 0 21 21" width="20.8" x="4" y="227"><path id="_-e-Shape_16_copy_3" d="M0.5,14L13.9,0.5l6.4,6.4L6.9,20.3L0.5,14z M4,11.8l1.4,1.4 M6.2,9.7l2.1,2.1 M8.3,7.6L9.7,9 M10.4,5.5l2.1,2.1 M12.5,3.3l1.4,1.4" fill="transparent" stroke="#fff" stroke-miterlimit="10"/></svg><svg height="20" viewBox="0 0 20 20" width="20" x="4" y="252"><defs><path id="r6taa" d="M937 850a10 10 0 1 1 0 20 10 10 0 0 1 0-20z"/><path id="r6tab" d="M925 862l12-8v2l-12 8z"/><path id="r6tac" d="M925 858l12-8v2l-12 8z"/><path id="r6tad" d="M925 866l12-8v2l-12 8z"/><path id="r6tae" d="M925 870l12-8v2l-12 8"/><path id="r6taf" d="M925 874l12-8v2l-12 8"/><clipPath id="r6tag"><use fill="#fff" xlink:href="#r6taa"/></clipPath><clipPath id="r6tai"><use fill="#fff" xlink:href="#r6tab"/></clipPath><clipPath id="r6taj"><use fill="#fff" xlink:href="#r6tac"/></clipPath><clipPath id="r6tak"><use fill="#fff" xlink:href="#r6tad"/></clipPath><clipPath id="r6tal"><use fill="#fff" xlink:href="#r6tae"/></clipPath><clipPath id="r6tam"><use fill="#fff" xlink:href="#r6taf"/></clipPath><clipPath id="r6tah"><use xlink:href="#r6taa"/></clipPath></defs><g transform="translate(-927 -850)"><use fill="#7765a1" xlink:href="#r6taa"/><use fill="#fff" fill-opacity="0" stroke="#f1f1f3" stroke-miterlimit="50" stroke-width="2" clip-path="url(&quot;#r6tag&quot;)" xlink:href="#r6taa"/></g><g clip-path="url(#r6tah)" transform="translate(-927 -850)"><use fill="#7765a1" xlink:href="#r6tab"/><use fill="#fff" fill-opacity="0" stroke="#f1f1f3" stroke-miterlimit="50" stroke-width="2" clip-path="url(&quot;#r6tai&quot;)" xlink:href="#r6tab"/></g><g clip-path="url(#r6tah)" transform="translate(-927 -850)"><use fill="#7765a1" xlink:href="#r6tac"/><use fill="#fff" fill-opacity="0" stroke="#f1f1f3" stroke-miterlimit="50" stroke-width="2" clip-path="url(&quot;#r6taj&quot;)" xlink:href="#r6tac"/></g><g clip-path="url(#r6tah)" transform="translate(-927 -850)"><use fill="#7765a1" xlink:href="#r6tad"/><use fill="#fff" fill-opacity="0" stroke="#f1f1f3" stroke-miterlimit="50" stroke-width="2" clip-path="url(&quot;#r6tak&quot;)" xlink:href="#r6tad"/></g><g clip-path="url(#r6tah)" transform="translate(-927 -850)"><use fill="#7765a1" xlink:href="#r6tae"/><use fill="#fff" fill-opacity="0" stroke="#f1f1f3" stroke-miterlimit="50" stroke-width="2" clip-path="url(&quot;#r6tal&quot;)" xlink:href="#r6tae"/></g><g clip-path="url(#r6tah)" transform="translate(-927 -850)"><use fill="#7765a1" xlink:href="#r6taf"/><use fill="#fff" fill-opacity="0" stroke="#f1f1f3" stroke-miterlimit="50" stroke-width="2" clip-path="url(&quot;#r6tam&quot;)" xlink:href="#r6taf"/></g></svg><svg height="20" viewBox="0 0 14 20" width="14" x="4" y="276"><defs><path id="6vtca" d="M57 41c0 5.25-7 13-7 13s-7-7.75-7-13a7 7 0 1 1 14 0zm-4.5 0a2.5 2.5 0 1 0-5 0 2.5 2.5 0 0 0 5 0z"/><clipPath id="6vtcb"><use fill="#fff" xlink:href="#6vtca"/></clipPath></defs><use fill="#fff" fill-opacity="0" stroke="#000" stroke-miterlimit="50" stroke-width="2" clip-path="url(&quot;#6vtcb&quot;)" xlink:href="#6vtca" transform="translate(-43 -34)"/></svg><svg height="19.5" viewBox="0 0 15 20" width="15" x="4" y="300"><style>.st1{fill:#fff;fill-opacity:0;stroke:#000;stroke-width:2;stroke-miterlimit:50}</style><g transform="translate(-738 -660)"><defs><path id="SVGID_1_" d="M738,679.5v-15h15v15H738z M752,678.5v-13h-13v13H752z"/></defs><clipPath id="SVGID_2_"><use xlink:href="#SVGID_1_" overflow="visible"/></clipPath><g clip-path="url(#SVGID_2_)"><path id="oof7c" class="st1" d="M739,678.5v-13h13v13H739z"/></g></g><g transform="translate(-738 -660)"><defs><path id="SVGID_3_" d="M741,670v-10h9v10H741z M749,669v-5c0-1.9-1.6-3.5-3.5-3.5s-3.5,1.6-3.5,3.5v5"/></defs><clipPath id="SVGID_4_"><use xlink:href="#SVGID_3_" overflow="visible"/></clipPath><g clip-path="url(#SVGID_4_)"><path id="oof7e" class="st1" d="M742,669v-5c0-1.9,1.6-3.5,3.5-3.5s3.5,1.6,3.5,3.5v5"/></g></g></svg><svg height="19.5" viewBox="0 0 15 20" width="15" x="4" y="324"><style>.st1{fill:transparent;fill-opacity:0;stroke:#fff;stroke-width:2;stroke-miterlimit:50}</style><g transform="translate(-738 -660)"><defs><path id="SVGID_1_" d="M738,679.5v-15h15v15H738z M752,678.5v-13h-13v13H752z"/></defs><clipPath id="SVGID_2_"><use xlink:href="#SVGID_1_" overflow="visible"/></clipPath><g clip-path="url(#SVGID_2_)"><path id="oof7c" class="st1" d="M739,678.5v-13h13v13H739z"/></g></g><g transform="translate(-738 -660)"><defs><path id="SVGID_3_" d="M741,670v-10h9v10H741z M749,669v-5c0-1.9-1.6-3.5-3.5-3.5s-3.5,1.6-3.5,3.5v5"/></defs><clipPath id="SVGID_4_"><use xlink:href="#SVGID_3_" overflow="visible"/></clipPath><g clip-path="url(#SVGID_4_)"><path id="oof7e" class="st1" d="M742,669v-5c0-1.9,1.6-3.5,3.5-3.5s3.5,1.6,3.5,3.5v5"/></g></g></svg><svg height="19" viewBox="0 0 19 19" width="19" x="4" y="348"><defs><path id="w6iwa" d="M1324 281v-3h3v3zm8 0v-3h3v3zm8 0v-3h3v3zm-16 8v-3h3v3zm8 0v-3h3v3zm8 0v-3h3v3zm-16 8v-3h3v3zm8 0v-3h3v3zm8 0v-3h3v3z"/></defs><use xlink:href="#w6iwa" transform="translate(-1324 -278)"/></svg><svg height="19" viewBox="0 0 19 19" width="19" x="4" y="371"><defs><path id="om96a" d="M1324 281v-3h8v3zm11 0v-3h8v3zm-11 8v-3h19v3zm0 8v-3h8v3zm11 0v-3h8v3z"/></defs><use xlink:href="#om96a" transform="translate(-1324 -278)"/></svg><svg height="18" viewBox="0 0 18 18" width="18" x="4" y="394"><path d="M8.59 16.34l4.58-4.59-4.58-4.59L10 5.75l6 6-6 6z"/></svg><svg height="17.1" viewBox="0 0 17 18" width="16.2" x="4" y="416"><g transform="translate(-1108 -35)"><path id="ecw3a" d="M1124.1,50.5c0.2,0.2,0.2,0.5,0,0.7c-0.2,0.2-0.5,0.2-0.7,0c0,0,0,0,0,0l-3.9-3.9 c-1.2,1.1-2.8,1.7-4.5,1.7c-3.8,0-6.9-3.1-6.8-6.9c0-3.8,3.1-6.9,6.8-6.9s6.8,3.1,6.8,6.9c0,1.7-0.6,3.3-1.7,4.5L1124.1,50.5z M1109.1,42c0,3.3,2.6,5.9,5.9,5.9c3.3,0,5.9-2.7,5.9-5.9c0-3.3-2.6-5.9-5.9-5.9C1111.7,36.1,1109.1,38.7,1109.1,42z" fill="#aa9ad0"/></g></svg><svg height="17.1" viewBox="0 0 17 18" width="16.2" x="4" y="438"><g transform="translate(-1108 -35)"><path id="ecw3a" d="M1124.1,50.5c0.2,0.2,0.2,0.5,0,0.7c-0.2,0.2-0.5,0.2-0.7,0c0,0,0,0,0,0l-3.9-3.9c-1.2,1.1-2.8,1.7-4.5,1.7 c-3.8,0-6.9-3.1-6.8-6.9c0-3.8,3.1-6.9,6.8-6.9s6.8,3.1,6.8,6.9c0,1.7-0.6,3.3-1.7,4.5L1124.1,50.5z M1109.1,42 c0,3.3,2.6,5.9,5.9,5.9c3.3,0,5.9-2.7,5.9-5.9c0-3.3-2.6-5.9-5.9-5.9C1111.7,36.1,1109.1,38.7,1109.1,42z"/></g></svg><svg height="17" viewBox="0 0 14 17" width="14" x="4" y="460"><defs><path id="7efba" d="M1198.48 46.15l-2.9-1.35a.74.74 0 0 1-.45-.67v-.96l.22-.27c.38-.5.68-1.05.9-1.64.43-.19.7-.58.7-1.03V39.1c0-.27-.1-.54-.3-.74v-1.51c.02-.16.09-1.08-.63-1.85-.63-.66-1.64-1-3.02-1-1.38 0-2.4.34-3.02 1-.72.76-.65 1.7-.63 1.85v1.5c-.2.21-.3.48-.3.75v1.13c0 .35.16.67.45.88a5.8 5.8 0 0 0 1.07 2.05v.94c0 .28-.17.53-.42.66l-2.72 1.38a2.53 2.53 0 0 0-1.43 2.24v.92c0 1.34 4.58 1.7 7 1.7s7-.36 7-1.7v-.86c0-.98-.58-1.85-1.52-2.29z"/><clipPath id="7efbb"><use fill="#fff" xlink:href="#7efba"/></clipPath></defs><use fill="#fff" fill-opacity="0" stroke="#000" stroke-miterlimit="50" stroke-width="2" clip-path="url(&quot;#7efbb&quot;)" xlink:href="#7efba" transform="translate(-1186 -34)"/></svg><svg height="17" viewBox="0 0 14 17" width="14" x="4" y="481"><g transform="translate(-1186 -34)"><defs><path id="SVGID_1_" d="M1198.5,46.2l-2.9-1.3c-0.3-0.1-0.4-0.4-0.4-0.7v-1l0.2-0.3c0.4-0.5,0.7-1,0.9-1.6c0.4-0.2,0.7-0.6,0.7-1 v-1.1c0-0.3-0.1-0.5-0.3-0.7v-1.5c0-0.2,0.1-1.1-0.6-1.8c-0.6-0.7-1.6-1-3-1s-2.4,0.3-3,1c-0.7,0.8-0.7,1.7-0.6,1.8v1.5 c-0.2,0.2-0.3,0.5-0.3,0.8v1.1c0,0.3,0.2,0.7,0.4,0.9c0.2,0.7,0.6,1.4,1.1,2v0.9c0,0.3-0.2,0.5-0.4,0.7l-2.7,1.4 c-0.9,0.4-1.4,1.3-1.4,2.2v0.9c0,1.3,4.6,1.7,7,1.7s7-0.4,7-1.7v-0.9C1200,47.5,1199.4,46.6,1198.5,46.2L1198.5,46.2z"/></defs><clipPath id="SVGID_2_"><use xlink:href="#SVGID_1_" overflow="visible"/></clipPath><g clip-path="url(#SVGID_2_)"><path id="qeyxa" d="M1198.5,46.2l-2.9-1.3c-0.3-0.1-0.4-0.4-0.4-0.7v-1l0.2-0.3c0.4-0.5,0.7-1,0.9-1.6 c0.4-0.2,0.7-0.6,0.7-1v-1.1c0-0.3-0.1-0.5-0.3-0.7v-1.5c0-0.2,0.1-1.1-0.6-1.8c-0.6-0.7-1.6-1-3-1s-2.4,0.3-3,1 c-0.7,0.8-0.7,1.7-0.6,1.8v1.5c-0.2,0.2-0.3,0.5-0.3,0.8v1.1c0,0.3,0.2,0.7,0.4,0.9c0.2,0.7,0.6,1.4,1.1,2v0.9 c0,0.3-0.2,0.5-0.4,0.7l-2.7,1.4c-0.9,0.4-1.4,1.3-1.4,2.2v0.9c0,1.3,4.6,1.7,7,1.7s7-0.4,7-1.7v-0.9 C1200,47.5,1199.4,46.6,1198.5,46.2L1198.5,46.2z" fill="#7765a1" stroke="#7765a1" stroke-miterlimit="10"/></g></g></svg><svg height="15" viewBox="0 0 16 15" width="16" x="4" y="502"><defs><path id="2zo3a" d="M1271 50l-1.12-1.14c-4.16-3.75-6.88-6.28-6.88-9.38a4.38 4.38 0 0 1 4.4-4.48c1.36 0 2.72.65 3.6 1.71a4.77 4.77 0 0 1 3.6-1.71c2.48 0 4.4 1.96 4.4 4.48 0 3.1-2.72 5.63-6.88 9.38z"/><clipPath id="2zo3b"><use fill="#7765A1" xlink:href="#2zo3a"/></clipPath></defs><use fill="#7765A1" stroke="#7765A1" stroke-miterlimit="50" stroke-width="2" clip-path="url(&quot;#2zo3b&quot;)" xlink:href="#2zo3a" transform="translate(-1263 -35)"/></svg><svg height="15" viewBox="0 0 16 15" width="16" x="4" y="521"><defs><path id="2zo3a" d="M1271 50l-1.12-1.14c-4.16-3.75-6.88-6.28-6.88-9.38a4.38 4.38 0 0 1 4.4-4.48c1.36 0 2.72.65 3.6 1.71a4.77 4.77 0 0 1 3.6-1.71c2.48 0 4.4 1.96 4.4 4.48 0 3.1-2.72 5.63-6.88 9.38z"/><clipPath id="2zo3b"><use fill="#fff" xlink:href="#2zo3a"/></clipPath></defs><use fill="#fff" fill-opacity="0" stroke="#fff" stroke-miterlimit="50" stroke-width="2" clip-path="url(&quot;#2zo3b&quot;)" xlink:href="#2zo3a" transform="translate(-1263 -35)"/></svg><svg height="15" viewBox="0 0 16 15" width="16" x="4" y="540"><defs><path id="2zo3a" d="M1271 50l-1.12-1.14c-4.16-3.75-6.88-6.28-6.88-9.38a4.38 4.38 0 0 1 4.4-4.48c1.36 0 2.72.65 3.6 1.71a4.77 4.77 0 0 1 3.6-1.71c2.48 0 4.4 1.96 4.4 4.48 0 3.1-2.72 5.63-6.88 9.38z"/><clipPath id="2zo3b"><use fill="#fff" xlink:href="#2zo3a"/></clipPath></defs><use fill="#fff" fill-opacity="0" stroke="#000" stroke-miterlimit="50" stroke-width="2" clip-path="url(&quot;#2zo3b&quot;)" xlink:href="#2zo3a" transform="translate(-1263 -35)"/></svg><svg height="9.844" viewBox="0 0 13 10" width="12.812" x="4" y="559"><path d="M570,461l3,3,5-5" transform="translate(-567.594 -458)" fill="none" stroke="#7865a4" stroke-width="2" fill-rule="evenodd"/></svg><svg height="10" viewBox="0 0 11 10" width="11" x="4" y="573"><defs><path id="c0xba" d="M14 17v-2h11v2z"/><path id="c0xbb" d="M14 21v-2h11v2z"/><path id="c0xbc" d="M14 25v-2h11v2z"/></defs><use xlink:href="#c0xba" transform="translate(-14 -15)"/><use xlink:href="#c0xbb" transform="translate(-14 -15)"/><use xlink:href="#c0xbc" transform="translate(-14 -15)"/></svg><svg height="10" viewBox="0 0 10 10" width="10" x="4" y="587"><defs><path id="fa21a" d="M662 281l10 10.03"/><clipPath id="fa21b"><use fill="#fff" xlink:href="#fa21a"/></clipPath></defs><use fill="#fff" fill-opacity="0" stroke="#fff" stroke-miterlimit="50" stroke-width="2" clip-path="url(&quot;#fa21b&quot;)" xlink:href="#fa21a" opacity=".6" transform="translate(-662 -281)"/></svg><svg height="9" viewBox="0 0 10 9" width="10" x="4" y="601"><defs><path id="8b3sa" d="M326.37 1795.08a.67.67 0 0 0-.37-1.15l-2.25-.33a.3.3 0 0 1-.22-.17l-1.01-2.06a.66.66 0 0 0-1.2 0l-1 2.06a.3.3 0 0 1-.23.17l-2.25.33a.67.67 0 0 0-.37 1.15l1.63 1.6c.07.07.1.17.08.26l-.38 2.27c-.04.2.02.4.14.54.2.24.55.32.83.17l2.01-1.07a.3.3 0 0 1 .28 0l2.01 1.07a.66.66 0 0 0 .83-.17.66.66 0 0 0 .14-.54l-.38-2.27a.3.3 0 0 1 .08-.26z"/></defs><use fill="transparent" stroke="#7765A1" xlink:href="#8b3sa" transform="translate(-317 -1791)"/></svg><svg height="9" viewBox="0 0 10 9" width="10" x="4" y="614"><defs><path id="8b3sa" d="M326.37 1795.08a.67.67 0 0 0-.37-1.15l-2.25-.33a.3.3 0 0 1-.22-.17l-1.01-2.06a.66.66 0 0 0-1.2 0l-1 2.06a.3.3 0 0 1-.23.17l-2.25.33a.67.67 0 0 0-.37 1.15l1.63 1.6c.07.07.1.17.08.26l-.38 2.27c-.04.2.02.4.14.54.2.24.55.32.83.17l2.01-1.07a.3.3 0 0 1 .28 0l2.01 1.07a.66.66 0 0 0 .83-.17.66.66 0 0 0 .14-.54l-.38-2.27a.3.3 0 0 1 .08-.26z"/></defs><use fill="#7765a1" xlink:href="#8b3sa" transform="translate(-317 -1791)"/></svg><svg height="5.34" viewBox="0 0 8 6" width="7.32" x="4" y="627"><path id="arrow" d="M1521.58,1309.6l2.92,3.17,2.92-3.17" transform="translate(-1520.84 -1308.91)" fill="none" stroke="#000" stroke-width="2" fill-rule="evenodd"/></svg><svg height="5.09" viewBox="0 0 8 6" width="7.06" x="4" y="637"><path id="arrow_copy_4" data-name="arrow copy 4" d="M1168.7,1463.36l2.8-2.98,2.8,2.98" transform="translate(-1167.97 -1458.94)" fill="none" stroke="#000" stroke-width="2" fill-rule="evenodd"/></svg></svg>