<?xml version="1.0" encoding="utf-8"?>
<!-- Generator: Adobe Illustrator 22.1.0, SVG Export Plug-In . SVG Version: 6.00 Build 0)  -->
<svg version="1.1" id="Layer_1" xmlns="http://www.w3.org/2000/svg" xmlns:xlink="http://www.w3.org/1999/xlink" x="0px" y="0px"
	 viewBox="0 0 20.2 20" style="enable-background:new 0 0 20.2 20;" xml:space="preserve">
<style type="text/css">
	.st0{clip-path:url(#SVGID_2_);}
	.st1{fill:#FFFFFF;fill-opacity:0;stroke:#000000;stroke-width:2;stroke-miterlimit:50;}
	.st2{clip-path:url(#SVGID_4_);}
	.st3{clip-path:url(#SVGID_6_);}
	.st4{clip-path:url(#SVGID_8_);}
	.st5{clip-path:url(#SVGID_10_);}
	.st6{clip-path:url(#SVGID_12_);}
</style>
<g>
	<g transform="translate(-732 -620)">
		<g>
			<defs>
				
					<rect id="SVGID_1_" x="732.4" y="625.5" transform="matrix(0.7071 -0.7071 0.7071 0.7071 -228.1783 709.1288)" width="19" height="9"/>
			</defs>
			<clipPath id="SVGID_2_">
				<use xlink:href="#SVGID_1_"  style="overflow:visible;"/>
			</clipPath>
			<g class="st0">
				<path id="jz52a" class="st1" d="M732,633.5l13.4-13.4l6.4,6.4l-13.4,13.4L732,633.5z"/>
			</g>
		</g>
	</g>
	<g transform="translate(-732 -620)">
		<g>
			<defs>
				<line id="SVGID_3_" x1="735.5" y1="631.4" x2="737" y2="632.8"/>
			</defs>
			<clipPath id="SVGID_4_">
				<use xlink:href="#SVGID_3_"  style="overflow:visible;"/>
			</clipPath>
			<g class="st2">
				<path id="jz52b" class="st1" d="M735.5,631.4l1.4,1.4"/>
			</g>
		</g>
	</g>
	<g transform="translate(-732 -620)">
		<g>
			<defs>
				<line id="SVGID_5_" x1="737.7" y1="629.3" x2="739.8" y2="631.4"/>
			</defs>
			<clipPath id="SVGID_6_">
				<use xlink:href="#SVGID_5_"  style="overflow:visible;"/>
			</clipPath>
			<g class="st3">
				<path id="jz52c" class="st1" d="M737.7,629.3l2.1,2.1"/>
			</g>
		</g>
	</g>
	<g transform="translate(-732 -620)">
		<g>
			<defs>
				<line id="SVGID_7_" x1="739.8" y1="627.2" x2="741.2" y2="628.6"/>
			</defs>
			<clipPath id="SVGID_8_">
				<use xlink:href="#SVGID_7_"  style="overflow:visible;"/>
			</clipPath>
			<g class="st4">
				<path id="jz52d" class="st1" d="M739.8,627.2l1.4,1.4"/>
			</g>
		</g>
	</g>
	<g transform="translate(-732 -620)">
		<g>
			<defs>
				<line id="SVGID_9_" x1="741.9" y1="625" x2="744" y2="627.2"/>
			</defs>
			<clipPath id="SVGID_10_">
				<use xlink:href="#SVGID_9_"  style="overflow:visible;"/>
			</clipPath>
			<g class="st5">
				<path id="jz52e" class="st1" d="M741.9,625l2.1,2.1"/>
			</g>
		</g>
	</g>
	<g transform="translate(-732 -620)">
		<g>
			<defs>
				<line id="SVGID_11_" x1="744" y1="622.9" x2="745.4" y2="624.3"/>
			</defs>
			<clipPath id="SVGID_12_">
				<use xlink:href="#SVGID_11_"  style="overflow:visible;"/>
			</clipPath>
			<g class="st6">
				<path id="jz52f" class="st1" d="M744,622.9l1.4,1.4"/>
			</g>
		</g>
	</g>
</g>
</svg>
