<?xml version="1.0" encoding="utf-8"?>
<!-- Generator: Adobe Illustrator 22.1.0, SVG Export Plug-In . SVG Version: 6.00 Build 0)  -->
<svg version="1.1" id="Layer_1" xmlns="http://www.w3.org/2000/svg" xmlns:xlink="http://www.w3.org/1999/xlink" x="0px" y="0px"
	 viewBox="0 0 16.2 17.1" style="enable-background:new 0 0 16.2 17.1;" xml:space="preserve">
<g>
	<g transform="translate(-1108 -35)">
		<g>
			<path id="ecw3a" d="M1124.1,50.5c0.2,0.2,0.2,0.5,0,0.7c-0.2,0.2-0.5,0.2-0.7,0c0,0,0,0,0,0l-3.9-3.9c-1.2,1.1-2.8,1.7-4.5,1.7
				c-3.8,0-6.9-3.1-6.8-6.9c0-3.8,3.1-6.9,6.8-6.9s6.8,3.1,6.8,6.9c0,1.7-0.6,3.3-1.7,4.5L1124.1,50.5z M1109.1,42
				c0,3.3,2.6,5.9,5.9,5.9c3.3,0,5.9-2.7,5.9-5.9c0-3.3-2.6-5.9-5.9-5.9C1111.7,36.1,1109.1,38.7,1109.1,42z"/>
		</g>
	</g>
</g>
</svg>
