<svg aria-hidden="true" style="position:absolute;width:0;height:0" xmlns="http://www.w3.org/2000/svg" overflow="hidden"><defs><symbol id="icon-arrow-up" viewBox="0 0 32 32"><path d="M20.085 4.329c0.169 0.188 0.169 0.471 0 0.659-0.074 0.083-0.182 0.134-0.301 0.134s-0.227-0.052-0.301-0.134l-0-0-3.078-3.36v29.911c0 0.254-0.188 0.471-0.433 0.471-0.235 0-0.433-0.216-0.433-0.471v-29.911l-3.068 3.369c-0.076 0.083-0.185 0.135-0.306 0.135s-0.23-0.052-0.306-0.135l-0-0c-0.077-0.087-0.124-0.203-0.124-0.329s0.047-0.242 0.125-0.33l-0 0.001 3.812-4.169c0.169-0.188 0.442-0.188 0.602 0z"/></symbol><symbol id="icon-pointer" viewBox="0 0 22 32"><path stroke-width="3.2" stroke-miterlimit="50" d="M22.4 11.2c0 8.4-11.2 20.8-11.2 20.8s-11.2-12.4-11.2-20.8c0-6.186 5.014-11.2 11.2-11.2s11.2 5.014 11.2 11.2v0zM15.2 11.2c0-2.209-1.791-4-4-4s-4 1.791-4 4v0c0 2.209 1.791 4 4 4s4-1.791 4-4v0z"/></symbol><symbol id="icon-cart" viewBox="0 0 25 32"><path stroke-width="3.282" stroke-miterlimit="50" d="M1.641 30.359v-21.333h21.333v21.333h-21.333z"/><path stroke-width="3.282" stroke-miterlimit="50" d="M6.564 14.769v-8.205c0-3.118 2.626-5.744 5.744-5.744s5.744 2.626 5.744 5.744v8.205"/></symbol><symbol id="icon-close" viewBox="0 0 32 32"><path fill="none" opacity=".6" stroke="var(--color1, #fff)" stroke-width="6.4" stroke-miterlimit="50" d="M0 0l32 32.096"/></symbol><symbol id="icon-linear" viewBox="0 0 32 32"><path stroke-width="3.2" stroke-miterlimit="50" d="M-0.32 21.664l21.504-21.504 10.192 10.176-21.504 21.504z"/><path stroke-width="3.2" stroke-miterlimit="50" d="M5.344 18.256l2.272 2.272"/><path stroke-width="3.2" stroke-miterlimit="50" d="M8.736 14.88l3.408 3.376"/><path stroke-width="3.2" stroke-miterlimit="50" d="M12.144 11.472l2.256 2.256"/><path stroke-width="3.2" stroke-miterlimit="50" d="M15.52 8.080l3.408 3.392"/><path stroke-width="3.2" stroke-miterlimit="50" d="M18.928 4.688l2.256 2.256"/></symbol><symbol id="icon-mark" viewBox="0 0 32 32"><path fill="none" stroke="var(--color2, #7865a4)" stroke-width="16" stroke-miterlimit="50" d="M0 14l12 12 20-20"/></symbol><symbol id="icon-arrow-down" viewBox="0 0 32 32"><path d="M20.085 27.699c0.169-0.188 0.169-0.48 0-0.668-0.074-0.083-0.182-0.134-0.301-0.134s-0.227 0.052-0.301 0.134l-0 0-3.078 3.369v-29.929c0-0.264-0.188-0.471-0.433-0.471-0.235 0-0.433 0.207-0.433 0.471v29.929l-3.068-3.369c-0.076-0.083-0.185-0.135-0.306-0.135s-0.23 0.052-0.306 0.135l-0 0c-0.077 0.087-0.124 0.203-0.124 0.329s0.047 0.242 0.125 0.33l-0-0.001 3.812 4.169c0.169 0.188 0.442 0.188 0.602 0z"/></symbol><symbol id="icon-profile" viewBox="0 0 32 32"><path stroke-width="3.765" stroke-miterlimit="50" d="M26.315 22.871l-5.459-2.541c-0.496-0.215-0.839-0.697-0.847-1.26v-1.808l0.414-0.508c0.715-0.941 1.28-1.976 1.694-3.087 0.809-0.358 1.318-1.092 1.318-1.939v-2.127c0-0.508-0.188-1.016-0.565-1.393v-2.842c0.038-0.301 0.169-2.033-1.186-3.482-1.186-1.242-3.087-1.882-5.685-1.882s-4.518 0.64-5.685 1.882c-1.355 1.431-1.224 3.2-1.186 3.482v2.824c-0.376 0.395-0.565 0.904-0.565 1.412v2.127c0 0.659 0.301 1.261 0.847 1.656 0.435 1.483 1.126 2.771 2.030 3.878l-0.016-0.020v1.769c0 0.527-0.32 0.998-0.791 1.242l-5.12 2.598c-1.585 0.778-2.663 2.368-2.692 4.213l-0 0.004v1.732c0 2.522 8.621 3.2 13.176 3.2s13.176-0.678 13.176-3.2v-1.619c0-1.845-1.092-3.482-2.861-4.311z"/></symbol><symbol id="icon-search" viewBox="0 0 32 32"><path d="M30.871 28.913c0.358 0.376 0.358 0.941 0 1.299-0.161 0.163-0.384 0.264-0.631 0.264s-0.47-0.101-0.63-0.264l-0-0-7.341-7.416c-2.239 1.987-5.204 3.2-8.452 3.2h-0c-7.12-0.043-12.875-5.824-12.875-12.95 0-0.013 0-0.027 0-0.040v0.002c0-7.172 5.779-13.007 12.875-13.007s12.875 5.835 12.875 12.988c0 3.256-1.186 6.249-3.162 8.527zM2.748 12.988c-0 0.011-0 0.025-0 0.038 0 6.128 4.946 11.101 11.064 11.143l0.004 0c6.122-0.043 11.068-5.015 11.068-11.143 0-0.013-0-0.027-0-0.040v0.002c0-0.011 0-0.024 0-0.038 0-6.124-4.949-11.093-11.065-11.125h-0.003c-6.12 0.032-11.068 5-11.068 11.125 0 0.013 0 0.027 0 0.040v-0.002z"/></symbol><symbol id="icon-star" viewBox="0 0 32 32"><path fill="var(--color3, #7765a1)" d="M28.945 14.778c0.375-0.356 0.608-0.858 0.608-1.414 0-0.983-0.728-1.796-1.674-1.93l-0.010-0.001-6.545-0.96c-0.286-0.052-0.52-0.238-0.638-0.489l-0.002-0.005-2.938-5.993c-0.311-0.667-0.975-1.12-1.745-1.12s-1.435 0.454-1.741 1.108l-0.005 0.012-2.909 5.993c-0.125 0.263-0.371 0.452-0.664 0.494l-0.005 0.001-6.545 0.96c-0.957 0.135-1.684 0.948-1.684 1.931 0 0.556 0.233 1.058 0.607 1.414l0.001 0.001 4.742 4.655c0.204 0.204 0.291 0.495 0.233 0.756l-1.105 6.604c-0.116 0.582 0.058 1.164 0.407 1.571 0.582 0.698 1.6 0.931 2.415 0.495l5.847-3.113c0.118-0.064 0.258-0.101 0.407-0.101s0.289 0.037 0.412 0.103l-0.005-0.002 5.847 3.113c0.264 0.145 0.578 0.23 0.912 0.23 0.607 0 1.148-0.282 1.5-0.721l0.003-0.004c0.273-0.329 0.439-0.756 0.439-1.222 0-0.123-0.012-0.244-0.034-0.361l0.002 0.012-1.105-6.604c-0.008-0.045-0.013-0.097-0.013-0.149 0-0.236 0.094-0.45 0.246-0.607l-0 0z"/></symbol><symbol id="icon-to-four" viewBox="0 0 32 32"><path d="M0 5.053v-5.053h5.053v5.053zM13.474 5.053v-5.053h5.053v5.053zM26.947 5.053v-5.053h5.053v5.053zM0 18.526v-5.053h5.053v5.053zM13.474 18.526v-5.053h5.053v5.053zM26.947 18.526v-5.053h5.053v5.053zM0 32v-5.053h5.053v5.053zM13.474 32v-5.053h5.053v5.053zM26.947 32v-5.053h5.053v5.053z"/></symbol><symbol id="icon-to-two" viewBox="0 0 32 32"><path d="M0 5.053v-5.053h13.474v5.053zM18.526 5.053v-5.053h13.474v5.053zM0 18.526v-5.053h32v5.053zM0 32v-5.053h13.474v5.053zM18.526 32v-5.053h13.474v5.053z"/></symbol></defs></svg>