<svg version="1.1" id="Layer_1" xmlns="http://www.w3.org/2000/svg" xmlns:xlink="http://www.w3.org/1999/xlink" x="0" y="0" viewBox="0 0 20.2 20" xml:space="preserve"><style>.st1{fill:#fff;fill-opacity:0;stroke:#000;stroke-width:2;stroke-miterlimit:50}</style><g transform="translate(-732 -620)"><defs><path id="SVGID_1_" transform="rotate(-45.001 741.901 630.012)" d="M732.4 625.5H751.4V634.5H732.4z"/></defs><clipPath id="SVGID_2_"><use xlink:href="#SVGID_1_" overflow="visible"/></clipPath><g clip-path="url(#SVGID_2_)"><path id="jz52a" class="st1" d="M732,633.5l13.4-13.4l6.4,6.4l-13.4,13.4L732,633.5z"/></g></g><g transform="translate(-732 -620)"><defs><path id="SVGID_3_" d="M735.5 631.4L737 632.8"/></defs><clipPath id="SVGID_4_"><use xlink:href="#SVGID_3_" overflow="visible"/></clipPath><g clip-path="url(#SVGID_4_)"><path id="jz52b" class="st1" d="M735.5,631.4l1.4,1.4"/></g></g><g transform="translate(-732 -620)"><defs><path id="SVGID_5_" d="M737.7 629.3L739.8 631.4"/></defs><clipPath id="SVGID_6_"><use xlink:href="#SVGID_5_" overflow="visible"/></clipPath><g clip-path="url(#SVGID_6_)"><path id="jz52c" class="st1" d="M737.7,629.3l2.1,2.1"/></g></g><g transform="translate(-732 -620)"><defs><path id="SVGID_7_" d="M739.8 627.2L741.2 628.6"/></defs><clipPath id="SVGID_8_"><use xlink:href="#SVGID_7_" overflow="visible"/></clipPath><g clip-path="url(#SVGID_8_)"><path id="jz52d" class="st1" d="M739.8,627.2l1.4,1.4"/></g></g><g transform="translate(-732 -620)"><defs><path id="SVGID_9_" d="M741.9 625L744 627.2"/></defs><clipPath id="SVGID_10_"><use xlink:href="#SVGID_9_" overflow="visible"/></clipPath><g clip-path="url(#SVGID_10_)"><path id="jz52e" class="st1" d="M741.9,625l2.1,2.1"/></g></g><g transform="translate(-732 -620)"><defs><path id="SVGID_11_" d="M744 622.9L745.4 624.3"/></defs><clipPath id="SVGID_12_"><use xlink:href="#SVGID_11_" overflow="visible"/></clipPath><g clip-path="url(#SVGID_12_)"><path id="jz52f" class="st1" d="M744,622.9l1.4,1.4"/></g></g></svg>