<svg id="Layer_1" xmlns="http://www.w3.org/2000/svg" xmlns:xlink="http://www.w3.org/1999/xlink" viewBox="0 0 16 15"><g transform="translate(-1263 -35)"><defs><path id="SVGID_1_" d="M1271,50l-1.1-1.1c-4.2-3.8-6.9-6.3-6.9-9.4c-0.1-2.4,1.9-4.4,4.3-4.5c0,0,0.1,0,0.1,0 c1.4,0,2.7,0.7,3.6,1.7c0.9-1.1,2.2-1.7,3.6-1.7c2.5,0,4.4,2,4.4,4.5c0,3.1-2.7,5.6-6.9,9.4L1271,50z"/></defs><clipPath id="SVGID_2_"><use xlink:href="#SVGID_1_" overflow="visible"/></clipPath><g clip-path="url(#SVGID_2_)"><path id="_x32_zo3a" d="M1271,50l-1.1-1.1c-4.2-3.8-6.9-6.3-6.9-9.4c-0.1-2.4,1.9-4.4,4.3-4.5c0,0,0.1,0,0.1,0 c1.4,0,2.7,0.7,3.6,1.7c0.9-1.1,2.2-1.7,3.6-1.7c2.5,0,4.4,2,4.4,4.5c0,3.1-2.7,5.6-6.9,9.4L1271,50z" fill="#7765a1" stroke="#7765a1" stroke-miterlimit="10"/></g></g></svg>